Moderustic-Medium.ufo
<glyph name="quotedbl" format="2">
  <advance width="409"/>
  <unicode hex="0022"/>
  <outline>
    <contour>
      <point x="65" y="566" type="line"/>
      <point x="143" y="566" type="line"/>
      <point x="158" y="803" type="line"/>
      <point x="50" y="803" type="line"/>
    </contour>
    <contour>
      <point x="266" y="566" type="line"/>
      <point x="344" y="566" type="line"/>
      <point x="359" y="803" type="line"/>
      <point x="251" y="803" type="line"/>
    </contour>
  </outline>
</glyph>
<glyph name="I" format="2">
  <advance width="326"/>
  <unicode hex="0049"/>
  <anchor x="163" y="719" name="top"/>
  <anchor x="163" y="-20" name="bottom"/>
  <anchor x="217" y="-2" name="ogonek"/>
  <anchor x="-13" y="500" name="topgr"/>
  <outline>
    <contour>
      <point x="103" y="0" type="line"/>
      <point x="223" y="0" type="line"/>
      <point x="223" y="700" type="line"/>
      <point x="103" y="700" type="line"/>
    </contour>
  </outline>
</glyph>
<glyph name="Q" format="2">
  <advance width="775"/>
  <unicode hex="0051"/>
  <anchor x="388" y="719" name="top"/>
  <anchor x="388" y="-20" name="bottom"/>
  <anchor x="513" y="-1" name="ogonek"/>
  <outline>
    <contour>
      <point x="390.938" y="84" type="curve" smooth="yes" name="dv02"/>
      <point x="252.45" y="84"/>
      <point x="167" y="183.84"/>
      <point x="167" y="349.967" type="curve" smooth="yes"/>
      <point x="167" y="518.071"/>
      <point x="245.575" y="616"/>
      <point x="383.08" y="616" type="curve" smooth="yes" name="dv03"/>
      <point x="524.514" y="616"/>
      <point x="608" y="520.126"/>
      <point x="608" y="350.045" type="curve" smooth="yes" name="dv05"/>
      <point x="608" y="184.907"/>
      <point x="527.461" y="84"/>
    </contour>
    <contour>
      <point x="387" y="-20" type="curve" smooth="yes" name="dv01"/>
      <point x="589" y="-20"/>
      <point x="732" y="107"/>
      <point x="732" y="350" type="curve" smooth="yes" name="dv06"/>
      <point x="732" y="575"/>
      <point x="602" y="720"/>
      <point x="388" y="720" type="curve" smooth="yes" name="dv04"/>
      <point x="182" y="720"/>
      <point x="43" y="586"/>
      <point x="43" y="350" type="curve" smooth="yes"/>
      <point x="43" y="109"/>
      <point x="186" y="-20"/>
    </contour>
    <contour>
      <point x="350" y="-3" type="line" name="ab02"/>
      <point x="350" y="-180"/>
      <point x="402" y="-204"/>
      <point x="634" y="-204" type="curve"/>
      <point x="634" y="-111" type="line"/>
      <point x="484" y="-111"/>
      <point x="453" y="-117"/>
      <point x="453" y="-3" type="curve" name="ab01"/>
    </contour>
  </outline>
</glyph>
<glyph name="R" format="2">
  <advance width="648"/>
  <unicode hex="0052"/>
  <anchor x="324" y="719" name="top"/>
  <anchor x="324" y="-20" name="bottom"/>
  <outline>
    <contour>
      <point x="78" y="0" type="line"/>
      <point x="198" y="0" type="line" name="ab01"/>
      <point x="198" y="600" type="line" name="sv01"/>
      <point x="308" y="600" type="line" smooth="yes"/>
      <point x="441" y="600"/>
      <point x="479" y="565"/>
      <point x="479" y="478" type="curve" smooth="yes"/>
      <point x="479" y="389"/>
      <point x="439" y="354"/>
      <point x="306" y="354" type="curve" smooth="yes"/>
      <point x="100" y="354" type="line" name="dv02"/>
      <point x="100" y="254" type="line" name="dv01"/>
      <point x="349" y="254" type="line" smooth="yes"/>
      <point x="505" y="254"/>
      <point x="599" y="342"/>
      <point x="599" y="479" type="curve" smooth="yes"/>
      <point x="599" y="617"/>
      <point x="504" y="700"/>
      <point x="348" y="700" type="curve" smooth="yes" name="at01"/>
      <point x="78" y="700" type="line"/>
    </contour>
    <contour>
      <point x="482" y="0" type="line" name="ab02"/>
      <point x="617" y="0" type="line"/>
      <point x="447" y="333" type="line"/>
      <point x="339" y="281" type="line"/>
    </contour>
  </outline>
</glyph>
<glyph name="Y" format="2">
  <advance width="662"/>
  <unicode hex="0059"/>
  <anchor x="331" y="719" name="top"/>
  <anchor x="331" y="-20" name="bottom"/>
  <anchor x="-75" y="500" name="topgr"/>
  <outline>
    <contour>
      <point x="271" y="0" type="line" name="ab01"/>
      <point x="391" y="0" type="line"/>
      <point x="391" y="295" type="line" name="iv04"/>
      <point x="634" y="700" type="line" name="at01"/>
      <point x="497" y="700" type="line"/>
      <point x="334" y="418" type="line" name="iv05"/>
      <point x="168" y="700" type="line" name="at02"/>
      <point x="28" y="700" type="line"/>
      <point x="271" y="295" type="line" name="iv01"/>
    </contour>
  </outline>
</glyph>
<glyph name="Z" format="2">
  <advance width="577"/>
  <unicode hex="005A"/>
  <anchor x="297" y="719" name="top"/>
  <anchor x="287" y="-20" name="bottom"/>
  <outline>
    <contour>
      <point x="27" y="0" type="line" name="ab01"/>
      <point x="547" y="0" type="line"/>
      <point x="547" y="100" type="line" name="sv01"/>
      <point x="168" y="100" type="line"/>
      <point x="545" y="605" type="line"/>
      <point x="545" y="700" type="line" name="at01"/>
      <point x="55" y="700" type="line"/>
      <point x="55" y="600" type="line" name="sv02"/>
      <point x="404" y="600" type="line"/>
      <point x="27" y="95" type="line"/>
    </contour>
  </outline>
</glyph>
<glyph name="underscore" format="2">
  <advance width="500"/>
  <unicode hex="005F"/>
  <outline>
    <contour>
      <point x="0" y="-63" type="line"/>
      <point x="500" y="-63" type="line"/>
      <point x="500" y="-27" type="line"/>
      <point x="0" y="-27" type="line"/>
    </contour>
  </outline>
</glyph>
<glyph name="d" format="2">
  <advance width="597"/>
  <unicode hex="0064"/>
  <anchor x="285" y="-20" name="bottom"/>
  <anchor x="281" y="750" name="top"/>
  <anchor x="580" y="750" name="topright"/>
  <outline>
    <contour>
      <point x="422" y="0" type="line" name="ab03"/>
      <point x="542" y="0" type="line"/>
      <point x="542" y="750" type="line" name="ab01"/>
      <point x="422" y="750" type="line"/>
    </contour>
    <contour>
      <point x="262" y="-20" type="curve" smooth="yes" name="dv01"/>
      <point x="379" y="-20"/>
      <point x="444" y="78"/>
      <point x="444" y="255" type="curve" smooth="yes"/>
      <point x="444" y="422"/>
      <point x="376" y="520"/>
      <point x="256" y="520" type="curve" smooth="yes" name="at01"/>
      <point x="115" y="520"/>
      <point x="40" y="411"/>
      <point x="40" y="255" type="curve" smooth="yes"/>
      <point x="40" y="99"/>
      <point x="124" y="-20"/>
    </contour>
    <contour>
      <point x="287" y="70" type="curve" smooth="yes" name="dv02"/>
      <point x="209" y="70"/>
      <point x="160" y="142.201"/>
      <point x="160" y="255.515" type="curve" smooth="yes"/>
      <point x="160" y="366.825"/>
      <point x="205" y="430"/>
      <point x="286" y="430" type="curve" smooth="yes" name="sv01"/>
      <point x="365" y="430"/>
      <point x="422" y="357.799"/>
      <point x="422" y="256.518" type="curve" smooth="yes"/>
      <point x="422" y="151.226"/>
      <point x="367" y="70"/>
    </contour>
  </outline>
</glyph>
<glyph name="k" format="2">
  <advance width="574"/>
  <unicode hex="006B"/>
  <anchor x="277" y="-20" name="bottom"/>
  <anchor x="120" y="750" name="top"/>
  <outline>
    <contour>
      <point x="56" y="0" type="line"/>
      <point x="176" y="0" type="line" name="ab02"/>
      <point x="176" y="750" type="line" name="ab01"/>
      <point x="56" y="750" type="line" name="sh01"/>
    </contour>
    <contour>
      <point x="81" y="222" type="line"/>
      <point x="309" y="222" type="line" name="iv01"/>
      <point x="408" y="0" type="line" name="ab02"/>
      <point x="544" y="0" type="line"/>
      <point x="404" y="263" type="line"/>
      <point x="530" y="500" type="line" name="av02"/>
      <point x="405" y="500" type="line"/>
      <point x="315" y="312" type="line" name="iv02"/>
      <point x="74" y="312" type="line"/>
    </contour>
  </outline>
</glyph>
<glyph name="r" format="2">
  <advance width="410"/>
  <unicode hex="0072"/>
  <anchor x="229" y="520" name="top"/>
  <anchor x="126" y="-20" name="bottom"/>
  <outline>
    <contour>
      <point x="64" y="0" type="line" name="ab01"/>
      <point x="184" y="0" type="line"/>
      <point x="184" y="210.981" type="line" smooth="yes"/>
      <point x="184" y="337.57"/>
      <point x="227" y="430"/>
      <point x="368" y="430" type="curve" name="sv01"/>
      <point x="368" y="520" type="line" name="at01"/>
      <point x="272" y="519"/>
      <point x="214" y="466"/>
      <point x="184" y="390" type="curve" name="iv01"/>
      <point x="184" y="500" type="line"/>
      <point x="64" y="500" type="line" name="av01"/>
    </contour>
  </outline>
</glyph>
<glyph name="v" format="2">
  <advance width="530"/>
  <unicode hex="0076"/>
  <anchor x="265" y="520" name="top"/>
  <anchor x="265" y="-20" name="bottom"/>
  <outline>
    <contour>
      <point x="207" y="0" type="line"/>
      <point x="323" y="0" type="line"/>
      <point x="515" y="500" type="line"/>
      <point x="386" y="500" type="line"/>
      <point x="265" y="148" type="line"/>
      <point x="144" y="500" type="line"/>
      <point x="15" y="500" type="line"/>
    </contour>
  </outline>
</glyph>
<glyph name="registered" format="2">
  <advance width="817"/>
  <unicode hex="00AE"/>
  <outline>
    <contour>
      <point x="44" y="357" type="curve" smooth="yes"/>
      <point x="44" y="137"/>
      <point x="233" y="12"/>
      <point x="411" y="12" type="curve" smooth="yes"/>
      <point x="589" y="12"/>
      <point x="773" y="138"/>
      <point x="773" y="357" type="curve" smooth="yes"/>
      <point x="773" y="572"/>
      <point x="596" y="688"/>
      <point x="411" y="688" type="curve" smooth="yes"/>
      <point x="227" y="688"/>
      <point x="44" y="573"/>
    </contour>
    <contour>
      <point x="104" y="358" type="curve" smooth="yes"/>
      <point x="104" y="513"/>
      <point x="231" y="628"/>
      <point x="408" y="628" type="curve" smooth="yes"/>
      <point x="585" y="628"/>
      <point x="713" y="514"/>
      <point x="713" y="354" type="curve" smooth="yes"/>
      <point x="713" y="186"/>
      <point x="573" y="72"/>
      <point x="411" y="72" type="curve" smooth="yes"/>
      <point x="243" y="72"/>
      <point x="104" y="195"/>
    </contour>
    <contour>
      <point x="270.8" y="150" type="line"/>
      <point x="342.8" y="150" type="line" name="ab01"/>
      <point x="342.8" y="476" type="line" name="sv01"/>
      <point x="404.102" y="476" type="line" smooth="yes"/>
      <point x="478.223" y="476"/>
      <point x="499.4" y="459.246"/>
      <point x="499.4" y="417.599" type="curve" smooth="yes"/>
      <point x="499.4" y="374.994"/>
      <point x="476.666" y="358.24"/>
      <point x="401.078" y="358.24" type="curve" smooth="yes"/>
      <point x="284" y="358.24" type="line" name="dv02"/>
      <point x="284" y="292.24" type="line" name="dv01"/>
      <point x="429.408" y="292.24" type="line" smooth="yes"/>
      <point x="520.507" y="292.24"/>
      <point x="575.4" y="341.52"/>
      <point x="575.4" y="418.24" type="curve" smooth="yes"/>
      <point x="575.4" y="495.52"/>
      <point x="519.859" y="542"/>
      <point x="428.654" y="542" type="curve" smooth="yes" name="at01"/>
      <point x="270.8" y="542" type="line"/>
    </contour>
    <contour>
      <point x="505.2" y="150" type="line" name="ab02"/>
      <point x="586.2" y="150" type="line"/>
      <point x="484.2" y="336.48" type="line"/>
      <point x="419.4" y="307.36" type="line"/>
    </contour>
  </outline>
</glyph>
<glyph name="Ccedilla" format="2">
  <advance width="684"/>
  <unicode hex="00C7"/>
  <anchor x="382" y="719" name="top"/>
  <anchor x="382" y="-218" name="bottom"/>
  <outline>
    <contour>
      <point x="576" y="173" type="line"/>
      <point x="534.407" y="117.495"/>
      <point x="473.007" y="84"/>
      <point x="394.772" y="84" type="curve" smooth="yes"/>
      <point x="266.031" y="84"/>
      <point x="167" y="188.623"/>
      <point x="167" y="365.299" type="curve" smooth="yes"/>
      <point x="167" y="524.208"/>
      <point x="246.225" y="616"/>
      <point x="386.85" y="616" type="curve" smooth="yes"/>
      <point x="462.114" y="616"/>
      <point x="523.513" y="586.989"/>
      <point x="576" y="528" type="curve"/>
      <point x="647" y="599" type="line"/>
      <point x="581" y="681"/>
      <point x="492" y="720"/>
      <point x="379" y="720" type="curve" smooth="yes"/>
      <point x="166" y="720"/>
      <point x="43" y="581"/>
      <point x="43" y="365" type="curve" smooth="yes"/>
      <point x="43" y="135"/>
      <point x="182" y="-20"/>
      <point x="387" y="-20" type="curve" smooth="yes"/>
      <point x="488" y="-20"/>
      <point x="572" y="18"/>
      <point x="647" y="102" type="curve"/>
    </contour>
    <contour>
      <point x="275" y="-205" type="line"/>
      <point x="301" y="-211"/>
      <point x="330" y="-218"/>
      <point x="371" y="-218" type="curve" smooth="yes"/>
      <point x="454" y="-218"/>
      <point x="501" y="-189"/>
      <point x="501" y="-136" type="curve" smooth="yes"/>
      <point x="501" y="-89"/>
      <point x="465" y="-64"/>
      <point x="405" y="-64" type="curve"/>
      <point x="447.784" y="13.546" type="line"/>
      <point x="374.784" y="13.546" type="line"/>
      <point x="322" y="-90" type="line"/>
      <point x="337" y="-88"/>
      <point x="348" y="-86"/>
      <point x="361" y="-86" type="curve" smooth="yes"/>
      <point x="396" y="-86"/>
      <point x="417" y="-101"/>
      <point x="417" y="-130" type="curve" smooth="yes"/>
      <point x="417" y="-158"/>
      <point x="397" y="-177"/>
      <point x="361" y="-177" type="curve" smooth="yes"/>
      <point x="343" y="-177"/>
      <point x="315" y="-172"/>
      <point x="294" y="-166" type="curve"/>
    </contour>
  </outline>
</glyph>
<glyph name="ae" format="2">
  <advance width="935"/>
  <unicode hex="00E6"/>
  <anchor x="464" y="520" name="top"/>
  <anchor x="464" y="0" name="bottom"/>
  <outline>
    <contour>
      <point x="413" y="0" type="line" name="ab01"/>
      <point x="533" y="0" type="line" name="sh01"/>
      <point x="533" y="500" type="line" name="av01"/>
      <point x="413" y="500" type="line"/>
    </contour>
    <contour>
      <point x="244" y="-20" type="curve" smooth="yes" name="dv01"/>
      <point x="368" y="-20"/>
      <point x="435" y="78"/>
      <point x="435" y="248" type="curve" smooth="yes"/>
      <point x="435" y="422"/>
      <point x="365" y="520"/>
      <point x="235" y="520" type="curve" smooth="yes" name="at01"/>
      <point x="98" y="520"/>
      <point x="21" y="411"/>
      <point x="21" y="259" type="curve" smooth="yes"/>
      <point x="21" y="99"/>
      <point x="107" y="-20"/>
    </contour>
    <contour>
      <point x="272" y="70" type="curve" smooth="yes" name="dv02"/>
      <point x="192" y="70"/>
      <point x="141" y="143.203"/>
      <point x="141" y="256.518" type="curve" smooth="yes"/>
      <point x="141" y="365.822"/>
      <point x="189" y="430"/>
      <point x="269" y="430" type="curve" smooth="yes" name="sv01"/>
      <point x="354" y="430"/>
      <point x="413" y="357.799"/>
      <point x="413" y="253.51" type="curve" smooth="yes"/>
      <point x="413" y="151.226"/>
      <point x="356" y="70"/>
    </contour>
    <contour>
      <point x="535" y="307" type="line" name="sv02"/>
      <point x="543.621" y="385.639"/>
      <point x="591.306" y="430"/>
      <point x="657.69" y="430" type="curve" smooth="yes" name="sv01"/>
      <point x="723.14" y="430"/>
      <point x="765.215" y="385.639"/>
      <point x="774" y="307" type="curve" name="dv04"/>
    </contour>
    <contour>
      <point x="810" y="138" type="line"/>
      <point x="779.962" y="94.358"/>
      <point x="719.184" y="70"/>
      <point x="662.204" y="70" type="curve" smooth="yes" name="dv02"/>
      <point x="576.735" y="70"/>
      <point x="534" y="125.353"/>
      <point x="534" y="227" type="curve" name="sv04"/>
      <point x="897" y="227" type="line" name="dv03"/>
      <point x="897" y="424"/>
      <point x="811.539" y="520"/>
      <point x="660.781" y="520" type="curve" smooth="yes" name="at01"/>
      <point x="512.905" y="520"/>
      <point x="414" y="427"/>
      <point x="414" y="251" type="curve" smooth="yes" name="sv03"/>
      <point x="414" y="72"/>
      <point x="516.574" y="-20"/>
      <point x="667.533" y="-20" type="curve" smooth="yes" name="dv01"/>
      <point x="763.333" y="-20"/>
      <point x="836.877" y="17"/>
      <point x="878" y="70" type="curve"/>
    </contour>
  </outline>
</glyph>
<glyph name="eng" format="2">
  <advance width="635"/>
  <unicode hex="014B"/>
  <outline>
    <contour>
      <point x="84" y="0" type="line" name="ab01"/>
      <point x="204" y="0" type="line" name="sh01"/>
      <point x="204" y="217" type="line" smooth="yes" name="iv01"/>
      <point x="204" y="344"/>
      <point x="252" y="428"/>
      <point x="340" y="428" type="curve" smooth="yes" name="sv01"/>
      <point x="399" y="428"/>
      <point x="431" y="398"/>
      <point x="431" y="290" type="curve" smooth="yes"/>
      <point x="431" y="-39" type="line" smooth="yes"/>
      <point x="431" y="-106"/>
      <point x="423" y="-128"/>
      <point x="378" y="-128" type="curve" smooth="yes" name="dv02"/>
      <point x="361" y="-128"/>
      <point x="328" y="-123"/>
      <point x="306" y="-114" type="curve"/>
      <point x="284" y="-198" type="line"/>
      <point x="329" y="-212"/>
      <point x="343" y="-221"/>
      <point x="408" y="-221" type="curve" smooth="yes" name="dv01"/>
      <point x="500" y="-221"/>
      <point x="551" y="-174"/>
      <point x="551" y="-68" type="curve" smooth="yes"/>
      <point x="551" y="314" type="line" smooth="yes"/>
      <point x="551" y="458"/>
      <point x="484" y="520"/>
      <point x="380" y="520" type="curve" smooth="yes" name="at01"/>
      <point x="298.49" y="520"/>
      <point x="229.29" y="467.76"/>
      <point x="204" y="389.55" type="curve"/>
      <point x="204" y="500" type="line" name="av01"/>
      <point x="84" y="500" type="line"/>
    </contour>
  </outline>
</glyph>
<glyph name="oe" format="2">
  <advance width="938"/>
  <unicode hex="0153"/>
  <anchor x="460" y="520" name="top"/>
  <anchor x="460" y="-20" name="bottom"/>
  <outline>
    <contour>
      <point x="279.68" y="-20" type="curve" smooth="yes" name="dv01"/>
      <point x="440.96" y="-20"/>
      <point x="518.72" y="79"/>
      <point x="518.72" y="255" type="curve" smooth="yes"/>
      <point x="518.72" y="421"/>
      <point x="440" y="520"/>
      <point x="279.68" y="520" type="curve" smooth="yes" name="at01"/>
      <point x="129.92" y="520"/>
      <point x="40.64" y="421"/>
      <point x="40.64" y="255" type="curve" smooth="yes"/>
      <point x="40.64" y="79"/>
      <point x="130.88" y="-20"/>
    </contour>
    <contour>
      <point x="279.68" y="70" type="curve" smooth="yes" name="dv02"/>
      <point x="200" y="70"/>
      <point x="155.84" y="132.346"/>
      <point x="155.84" y="255.028" type="curve" smooth="yes"/>
      <point x="155.84" y="373.687"/>
      <point x="197.12" y="430"/>
      <point x="279.68" y="430" type="curve" smooth="yes" name="sv01"/>
      <point x="363.2" y="430"/>
      <point x="403.52" y="369.665"/>
      <point x="403.52" y="253.017" type="curve" smooth="yes"/>
      <point x="403.52" y="135.363"/>
      <point x="362.24" y="70"/>
    </contour>
    <contour>
      <point x="523.84" y="307" type="line" name="sv02"/>
      <point x="532.57" y="385.639"/>
      <point x="582.241" y="430"/>
      <point x="651.391" y="430" type="curve" smooth="yes" name="sv01"/>
      <point x="719.567" y="430"/>
      <point x="763.395" y="385.639"/>
      <point x="772.16" y="307" type="curve" name="dv04"/>
    </contour>
    <contour>
      <point x="802.23" y="138" type="line"/>
      <point x="772.056" y="94.358"/>
      <point x="709.762" y="70"/>
      <point x="651.362" y="70" type="curve" smooth="yes" name="dv02"/>
      <point x="563.761" y="70"/>
      <point x="519.96" y="125.353"/>
      <point x="519.96" y="227" type="curve" name="sv04"/>
      <point x="891.47" y="227" type="line" name="dv03"/>
      <point x="891.47" y="424"/>
      <point x="805.14" y="520"/>
      <point x="652.85" y="520" type="curve" smooth="yes" name="at01"/>
      <point x="503.47" y="520"/>
      <point x="403.56" y="427"/>
      <point x="403.56" y="251" type="curve" smooth="yes" name="sv03"/>
      <point x="403.56" y="72"/>
      <point x="506.38" y="-20"/>
      <point x="657.7" y="-20" type="curve" smooth="yes" name="dv01"/>
      <point x="753.73" y="-20"/>
      <point x="827.45" y="17"/>
      <point x="868.19" y="70" type="curve"/>
    </contour>
  </outline>
</glyph>
<glyph name="apostrophemod" format="2">
  <advance width="287"/>
  <unicode hex="02BC"/>
  <outline>
    <contour>
      <point x="73" y="500" type="line"/>
      <point x="157" y="500" type="line"/>
      <point x="238" y="701" type="line"/>
      <point x="124" y="701" type="line"/>
    </contour>
  </outline>
</glyph>
<glyph name="circumflex" format="2">
  <advance width="346"/>
  <unicode hex="02C6"/>
  <outline>
    <contour>
      <point x="27" y="550" type="line"/>
      <point x="112" y="550" type="line"/>
      <point x="173" y="656" type="line"/>
      <point x="234" y="550" type="line"/>
      <point x="319" y="550" type="line"/>
      <point x="217" y="701" type="line"/>
      <point x="129" y="701" type="line"/>
    </contour>
  </outline>
</glyph>
<glyph name="hungarumlaut" format="2">
  <advance width="389"/>
  <unicode hex="02DD"/>
  <outline>
    <contour>
      <point x="206" y="551" type="line"/>
      <point x="262" y="551" type="line"/>
      <point x="362" y="700" type="line"/>
      <point x="266" y="700" type="line"/>
    </contour>
    <contour>
      <point x="33" y="551" type="line"/>
      <point x="89" y="551" type="line"/>
      <point x="189" y="700" type="line"/>
      <point x="93" y="700" type="line"/>
    </contour>
  </outline>
</glyph>
<glyph name="dieresiscomb" format="2">
  <advance width="407"/>
  <unicode hex="0308"/>
  <anchor x="204" y="647" name="top"/>
  <anchor x="204" y="500" name="_top"/>
  <anchor x="204" y="500" name="_topgr"/>
  <outline>
    <contour>
      <point x="40.653" y="616" type="curve" smooth="yes"/>
      <point x="40.653" y="589.653"/>
      <point x="61.354" y="557.661"/>
      <point x="102.757" y="557.661" type="curve" smooth="yes" name="dv01"/>
      <point x="142.277" y="557.661"/>
      <point x="161.037" y="586.83"/>
      <point x="161.037" y="616" type="curve" smooth="yes"/>
      <point x="161.037" y="647.052"/>
      <point x="142.277" y="674.339"/>
      <point x="102.757" y="674.339" type="curve" smooth="yes" name="dv02"/>
      <point x="61.354" y="674.339"/>
      <point x="40.653" y="643.288"/>
    </contour>
    <contour>
      <point x="245.963" y="616" type="curve" smooth="yes"/>
      <point x="245.963" y="589.653"/>
      <point x="266.664" y="557.661"/>
      <point x="308.066" y="557.661" type="curve" smooth="yes" name="dv01.1"/>
      <point x="347.587" y="557.661"/>
      <point x="366.347" y="586.83"/>
      <point x="366.347" y="616" type="curve" smooth="yes"/>
      <point x="366.347" y="647.052"/>
      <point x="347.587" y="674.339"/>
      <point x="308.066" y="674.339" type="curve" smooth="yes" name="dv02.1"/>
      <point x="266.664" y="674.339"/>
      <point x="245.963" y="643.288"/>
    </contour>
  </outline>
</glyph>
<glyph name="Ljecyr" format="2">
  <advance width="974"/>
  <unicode hex="0409"/>
  <outline>
    <contour>
      <point x="1" y="9" type="line"/>
      <point x="40" y="-14"/>
      <point x="60" y="-20"/>
      <point x="96" y="-20" type="curve" smooth="yes"/>
      <point x="222.847" y="-20"/>
      <point x="265.838" y="52.172"/>
      <point x="276.828" y="370.324" type="curve" smooth="yes"/>
      <point x="279.094" y="435.919"/>
      <point x="280" y="511.97"/>
      <point x="280" y="600" type="curve"/>
      <point x="493" y="600" type="line"/>
      <point x="493" y="0" type="line"/>
      <point x="685" y="0" type="line" smooth="yes"/>
      <point x="874" y="0"/>
      <point x="935" y="98.615"/>
      <point x="935" y="223.785" type="curve" smooth="yes"/>
      <point x="935" y="350.062"/>
      <point x="873" y="432"/>
      <point x="679" y="432" type="curve" smooth="yes"/>
      <point x="613" y="432" type="line"/>
      <point x="613" y="700" type="line"/>
      <point x="160" y="700" type="line"/>
      <point x="160" y="613.754"/>
      <point x="159.655" y="538.611"/>
      <point x="158.754" y="473.342" type="curve" smooth="yes"/>
      <point x="154.567" y="170.064"/>
      <point x="138.374" y="80"/>
      <point x="89" y="80" type="curve" smooth="yes"/>
      <point x="73" y="80"/>
      <point x="54" y="90"/>
      <point x="22" y="108" type="curve"/>
    </contour>
    <contour>
      <point x="613" y="100" type="line"/>
      <point x="613" y="332" type="line"/>
      <point x="661" y="332" type="line" smooth="yes"/>
      <point x="779" y="332"/>
      <point x="815" y="303.916"/>
      <point x="815" y="217.221" type="curve" smooth="yes"/>
      <point x="815" y="128.084"/>
      <point x="777" y="100"/>
      <point x="651" y="100" type="curve" smooth="yes"/>
    </contour>
  </outline>
</glyph>
<glyph name="Becyr" format="2">
  <advance width="613"/>
  <unicode hex="0411"/>
  <outline>
    <contour>
      <point x="108" y="599" type="line"/>
      <point x="530" y="599" type="line"/>
      <point x="530" y="700" type="line"/>
      <point x="95" y="700" type="line"/>
      <point x="95" y="694" type="line"/>
    </contour>
    <contour>
      <point x="77" y="0" type="line"/>
      <point x="333" y="0" type="line" smooth="yes"/>
      <point x="480" y="0"/>
      <point x="574" y="86.981"/>
      <point x="574" y="222.058" type="curve" smooth="yes"/>
      <point x="574" y="357.135"/>
      <point x="480" y="439"/>
      <point x="333" y="439" type="curve" smooth="yes"/>
      <point x="197" y="439" type="line"/>
      <point x="197" y="700" type="line"/>
      <point x="77" y="700" type="line"/>
    </contour>
    <contour>
      <point x="197" y="100" type="line"/>
      <point x="197" y="339" type="line"/>
      <point x="331" y="339" type="line" smooth="yes"/>
      <point x="421" y="339"/>
      <point x="454" y="297.253"/>
      <point x="454" y="222.109" type="curve" smooth="yes"/>
      <point x="454" y="146.965"/>
      <point x="421" y="100"/>
      <point x="331" y="100" type="curve" smooth="yes"/>
    </contour>
  </outline>
</glyph>
<glyph name="Zhecyr" format="2">
  <advance width="925"/>
  <unicode hex="0416"/>
  <anchor x="463" y="720" name="top"/>
  <outline>
    <contour>
      <point x="102" y="473" type="line"/>
      <point x="109.23" y="410.14"/>
      <point x="131.32" y="371.43"/>
      <point x="165.33" y="349.44" type="curve"/>
      <point x="38" y="0" type="line"/>
      <point x="166" y="0" type="line"/>
      <point x="284.52" y="325" type="line"/>
      <point x="403" y="325" type="line"/>
      <point x="403" y="0" type="line" name="av01"/>
      <point x="523" y="0" type="line"/>
      <point x="523" y="325" type="line"/>
      <point x="641.47" y="325" type="line"/>
      <point x="760" y="0" type="line"/>
      <point x="888" y="0" type="line"/>
      <point x="760.59" y="349.67" type="line"/>
      <point x="796.72" y="373.04"/>
      <point x="817" y="413.49"/>
      <point x="824" y="473" type="curve"/>
      <point x="845" y="700" type="line"/>
      <point x="724" y="700" type="line"/>
      <point x="709" y="547" type="line" smooth="yes"/>
      <point x="700" y="454"/>
      <point x="681" y="425"/>
      <point x="626" y="425" type="curve" smooth="yes"/>
      <point x="523" y="425" type="line"/>
      <point x="523" y="700" type="line" name="av02"/>
      <point x="403" y="700" type="line"/>
      <point x="403" y="425" type="line"/>
      <point x="303" y="425" type="line" smooth="yes"/>
      <point x="235" y="425"/>
      <point x="224" y="473"/>
      <point x="217" y="547" type="curve" smooth="yes"/>
      <point x="202" y="700" type="line"/>
      <point x="81" y="700" type="line"/>
    </contour>
  </outline>
</glyph>
<glyph name="Efcyr" format="2">
  <advance width="836"/>
  <unicode hex="0424"/>
  <outline>
    <contour>
      <point x="358" y="-20" type="line"/>
      <point x="478" y="-20" type="line"/>
      <point x="478" y="60" type="line"/>
      <point x="655" y="60"/>
      <point x="783" y="183"/>
      <point x="783" y="354" type="curve" smooth="yes"/>
      <point x="783" y="524"/>
      <point x="657" y="642"/>
      <point x="478" y="642" type="curve"/>
      <point x="478" y="722" type="line"/>
      <point x="358" y="722" type="line"/>
      <point x="358" y="642" type="line"/>
      <point x="179" y="642"/>
      <point x="53" y="524"/>
      <point x="53" y="354" type="curve" smooth="yes"/>
      <point x="53" y="183"/>
      <point x="181" y="60"/>
      <point x="358" y="60" type="curve"/>
    </contour>
    <contour>
      <point x="478" y="542" type="line"/>
      <point x="600" y="542"/>
      <point x="663" y="478"/>
      <point x="663" y="353" type="curve" smooth="yes"/>
      <point x="663" y="227"/>
      <point x="599" y="160"/>
      <point x="478" y="160" type="curve"/>
    </contour>
    <contour>
      <point x="358" y="160" type="line"/>
      <point x="239" y="160"/>
      <point x="173" y="229"/>
      <point x="173" y="356" type="curve" smooth="yes"/>
      <point x="173" y="483"/>
      <point x="240" y="542"/>
      <point x="358" y="542" type="curve"/>
    </contour>
  </outline>
</glyph>
<glyph name="Tsecyr" format="2">
  <advance width="760"/>
  <unicode hex="0426"/>
  <outline>
    <contour>
      <point x="87" y="0" type="line"/>
      <point x="566" y="0" type="line" smooth="yes"/>
      <point x="637" y="0"/>
      <point x="629" y="-50"/>
      <point x="629" y="-140" type="curve"/>
      <point x="729" y="-140" type="line"/>
      <point x="729" y="87"/>
      <point x="697" y="100"/>
      <point x="597" y="100" type="curve"/>
      <point x="597" y="701" type="line"/>
      <point x="477" y="701" type="line"/>
      <point x="477" y="100" type="line"/>
      <point x="207" y="100" type="line"/>
      <point x="207" y="701" type="line"/>
      <point x="87" y="701" type="line"/>
    </contour>
  </outline>
</glyph>
<glyph name="Shchacyr" format="2">
  <advance width="1060"/>
  <unicode hex="0429"/>
  <outline>
    <contour>
      <point x="854" y="0" type="line" smooth="yes"/>
      <point x="925" y="0"/>
      <point x="917" y="-50"/>
      <point x="917" y="-140" type="curve"/>
      <point x="1017" y="-140" type="line"/>
      <point x="1017" y="87"/>
      <point x="985" y="100"/>
      <point x="885" y="100" type="curve"/>
      <point x="885" y="700" type="line"/>
      <point x="765" y="700" type="line"/>
      <point x="765" y="100" type="line"/>
      <point x="546" y="100" type="line"/>
      <point x="546" y="700" type="line"/>
      <point x="426" y="700" type="line"/>
      <point x="426" y="100" type="line"/>
      <point x="207" y="100" type="line"/>
      <point x="207" y="700" type="line"/>
      <point x="87" y="700" type="line"/>
      <point x="87" y="0" type="line"/>
    </contour>
  </outline>
</glyph>
<glyph name="checyr" format="2">
  <advance width="575"/>
  <unicode hex="0447"/>
  <anchor x="288" y="-20" name="bottom"/>
  <anchor x="288" y="520" name="top"/>
  <outline>
    <contour>
      <point x="385" y="0" type="line" name="ab01"/>
      <point x="505" y="0" type="line" name="sh01"/>
      <point x="505" y="500" type="line" name="av01"/>
      <point x="385" y="500" type="line"/>
      <point x="385" y="343" type="line" smooth="yes"/>
      <point x="385" y="284.45"/>
      <point x="321" y="244"/>
      <point x="263.91" y="244" type="curve" smooth="yes"/>
      <point x="215.44" y="244"/>
      <point x="186" y="273.16"/>
      <point x="186" y="340.41" type="curve" smooth="yes"/>
      <point x="186" y="500" type="line"/>
      <point x="66" y="500" type="line"/>
      <point x="66" y="340" type="line" smooth="yes"/>
      <point x="66" y="216.77"/>
      <point x="130.41" y="154"/>
      <point x="232.25" y="154" type="curve" smooth="yes"/>
      <point x="296.47" y="154"/>
      <point x="355.8" y="182.56"/>
      <point x="385" y="237.17" type="curve"/>
    </contour>
  </outline>
</glyph>
<glyph name="shchacyr" format="2">
  <advance width="944"/>
  <unicode hex="0449"/>
  <outline>
    <contour>
      <point x="70" y="0" type="line"/>
      <point x="772" y="0" type="line" smooth="yes"/>
      <point x="840" y="0"/>
      <point x="825" y="-102"/>
      <point x="825" y="-140" type="curve"/>
      <point x="910" y="-140" type="line"/>
      <point x="910" y="52"/>
      <point x="889" y="99"/>
      <point x="789" y="99" type="curve"/>
      <point x="789" y="500" type="line"/>
      <point x="669" y="500" type="line"/>
      <point x="669" y="100" type="line"/>
      <point x="490" y="100" type="line"/>
      <point x="490" y="500" type="line"/>
      <point x="370" y="500" type="line"/>
      <point x="370" y="100" type="line"/>
      <point x="190" y="100" type="line"/>
      <point x="190" y="500" type="line"/>
      <point x="70" y="500" type="line"/>
    </contour>
  </outline>
</glyph>
<glyph name="ereversedcyr" format="2">
  <advance width="563"/>
  <unicode hex="044D"/>
  <anchor x="301" y="-20" name="bottom"/>
  <anchor x="281" y="520" name="top"/>
  <outline>
    <contour>
      <point x="421" y="210" type="line"/>
      <point x="421" y="294" type="line"/>
      <point x="157" y="294" type="line"/>
      <point x="157" y="210" type="line"/>
    </contour>
    <contour>
      <point x="50" y="70" type="line"/>
      <point x="92" y="17"/>
      <point x="173" y="-20"/>
      <point x="273" y="-20" type="curve" smooth="yes" name="dv01"/>
      <point x="428" y="-20"/>
      <point x="516" y="79"/>
      <point x="516" y="255" type="curve" smooth="yes"/>
      <point x="516" y="421"/>
      <point x="428" y="520"/>
      <point x="272" y="520" type="curve" smooth="yes" name="at01"/>
      <point x="174" y="520"/>
      <point x="98" y="483"/>
      <point x="56" y="430" type="curve"/>
      <point x="124" y="362" type="line"/>
      <point x="156" y="406.657"/>
      <point x="214" y="430"/>
      <point x="269" y="430" type="curve" smooth="yes" name="sv01"/>
      <point x="355" y="430"/>
      <point x="396" y="373.688"/>
      <point x="396" y="255.029" type="curve" smooth="yes"/>
      <point x="396" y="167.544"/>
      <point x="375" y="68.997"/>
      <point x="267" y="70" type="curve" name="dv02"/>
      <point x="216" y="70"/>
      <point x="148" y="95.373"/>
      <point x="118" y="138" type="curve"/>
    </contour>
  </outline>
</glyph>
<glyph name="geupcyr" format="2">
  <advance width="510"/>
  <unicode hex="0491"/>
  <outline>
    <contour>
      <point x="200" y="0" type="line"/>
      <point x="200" y="410" type="line"/>
      <point x="350" y="410" type="line" smooth="yes"/>
      <point x="452" y="410"/>
      <point x="473" y="446"/>
      <point x="473" y="638" type="curve"/>
      <point x="383" y="638" type="line"/>
      <point x="383" y="601"/>
      <point x="391" y="500"/>
      <point x="337" y="500" type="curve" smooth="yes"/>
      <point x="80" y="500" type="line"/>
      <point x="80" y="0" type="line"/>
    </contour>
  </outline>
</glyph>
<glyph name="Germandbls" format="2">
  <advance width="715"/>
  <unicode hex="1E9E"/>
  <outline>
    <contour>
      <point x="66" y="0" type="line"/>
      <point x="186" y="0" type="line"/>
      <point x="186" y="477.897" type="line" smooth="yes"/>
      <point x="186" y="583.343"/>
      <point x="223.362" y="616"/>
      <point x="344" y="616" type="curve" smooth="yes"/>
      <point x="399.408" y="616"/>
      <point x="450.75" y="604.492"/>
      <point x="476.582" y="595.935" type="curve"/>
      <point x="472.434" y="609.776" type="line"/>
      <point x="411" y="526" type="line" smooth="yes"/>
      <point x="370.437" y="470.686"/>
      <point x="352" y="445.16"/>
      <point x="352" y="395.682" type="curve" smooth="yes"/>
      <point x="352" y="236.362"/>
      <point x="567" y="261.101"/>
      <point x="567" y="151.259" type="curve" smooth="yes"/>
      <point x="567" y="106.729"/>
      <point x="525.2" y="81"/>
      <point x="472.95" y="81" type="curve" smooth="yes"/>
      <point x="420.7" y="81"/>
      <point x="377" y="107"/>
      <point x="352" y="154" type="curve"/>
      <point x="273" y="75" type="line"/>
      <point x="311" y="18"/>
      <point x="372.364" y="-20"/>
      <point x="467.818" y="-20" type="curve" smooth="yes"/>
      <point x="600.286" y="-20"/>
      <point x="686" y="54"/>
      <point x="686" y="160" type="curve" smooth="yes"/>
      <point x="686" y="340"/>
      <point x="473" y="316"/>
      <point x="473" y="406" type="curve" smooth="yes"/>
      <point x="473" y="433"/>
      <point x="496.752" y="454.833"/>
      <point x="519" y="485" type="curve" smooth="yes"/>
      <point x="645.903" y="657.072" type="line"/>
      <point x="634.911" y="638.196" type="line"/>
      <point x="584.142" y="684.58"/>
      <point x="482.353" y="720"/>
      <point x="354" y="720" type="curve" smooth="yes"/>
      <point x="165" y="720"/>
      <point x="66" y="643"/>
      <point x="66" y="489" type="curve" smooth="yes"/>
    </contour>
  </outline>
</glyph>
<glyph name="four.superior" format="2">
  <advance width="460"/>
  <unicode hex="2074"/>
  <outline>
    <contour>
      <point x="20" y="448" type="line"/>
      <point x="258" y="448" type="line"/>
      <point x="258" y="344" type="line"/>
      <point x="351" y="344" type="line"/>
      <point x="351" y="448" type="line"/>
      <point x="439" y="448" type="line"/>
      <point x="439" y="523" type="line"/>
      <point x="351" y="523" type="line"/>
      <point x="351" y="830" type="line"/>
      <point x="235" y="830" type="line"/>
      <point x="20" y="486" type="line"/>
    </contour>
    <contour>
      <point x="132" y="523" type="line"/>
      <point x="258" y="725" type="line"/>
      <point x="258" y="523" type="line"/>
    </contour>
  </outline>
</glyph>
<glyph name="eight.superior" format="2">
  <advance width="410"/>
  <unicode hex="2078"/>
  <outline>
    <contour>
      <point x="156" y="598" type="curve"/>
      <point x="78" y="585"/>
      <point x="31" y="539"/>
      <point x="31" y="468" type="curve" smooth="yes"/>
      <point x="31" y="387"/>
      <point x="93" y="337"/>
      <point x="207" y="337" type="curve" smooth="yes"/>
      <point x="319" y="337"/>
      <point x="379" y="386"/>
      <point x="379" y="469" type="curve" smooth="yes"/>
      <point x="379" y="541"/>
      <point x="335" y="585"/>
      <point x="257" y="598" type="curve"/>
      <point x="321" y="612"/>
      <point x="359" y="654"/>
      <point x="359" y="711" type="curve" smooth="yes"/>
      <point x="359" y="784"/>
      <point x="298" y="832"/>
      <point x="206" y="832" type="curve" smooth="yes"/>
      <point x="116" y="832"/>
      <point x="50" y="786"/>
      <point x="50" y="712" type="curve" smooth="yes"/>
      <point x="50" y="654"/>
      <point x="91" y="612"/>
    </contour>
    <contour>
      <point x="125" y="487" type="curve" smooth="yes"/>
      <point x="125" y="534"/>
      <point x="157" y="558"/>
      <point x="206" y="558" type="curve" smooth="yes"/>
      <point x="254" y="558"/>
      <point x="286" y="536"/>
      <point x="286" y="488" type="curve" smooth="yes"/>
      <point x="286" y="443"/>
      <point x="259" y="413"/>
      <point x="206" y="413" type="curve" smooth="yes"/>
      <point x="152" y="413"/>
      <point x="125" y="443"/>
    </contour>
    <contour>
      <point x="205" y="634" type="curve" smooth="yes"/>
      <point x="169" y="634"/>
      <point x="144" y="663"/>
      <point x="144" y="697" type="curve" smooth="yes"/>
      <point x="144" y="734"/>
      <point x="172" y="756"/>
      <point x="206" y="756" type="curve" smooth="yes"/>
      <point x="241" y="756"/>
      <point x="266" y="732"/>
      <point x="266" y="697" type="curve" smooth="yes"/>
      <point x="266" y="661"/>
      <point x="239" y="634"/>
    </contour>
  </outline>
</glyph>
<glyph name="fi" format="2">
  <advance width="685"/>
  <unicode hex="FB01"/>
  <outline>
    <contour>
      <point x="114" y="0" type="line" name="ab01"/>
      <point x="234" y="0" type="line"/>
      <point x="234" y="410" type="line" name="sv01"/>
      <point x="530.389" y="410" type="line"/>
      <point x="530.389" y="500" type="line" name="sv02"/>
      <point x="234" y="500" type="line"/>
      <point x="234" y="579" type="line" smooth="yes"/>
      <point x="234" y="633"/>
      <point x="252" y="660"/>
      <point x="290" y="660" type="curve" smooth="yes" name="dv01"/>
      <point x="304" y="660"/>
      <point x="338" y="656"/>
      <point x="361" y="648" type="curve"/>
      <point x="376" y="728" type="line"/>
      <point x="321" y="745.217"/>
      <point x="293" y="750"/>
      <point x="264" y="750" type="curve" smooth="yes" name="dv02"/>
      <point x="169" y="750"/>
      <point x="114" y="698.207"/>
      <point x="114" y="607.57" type="curve" smooth="yes"/>
      <point x="114" y="500" type="line" name="dv04"/>
      <point x="22" y="500" type="line"/>
      <point x="22" y="410" type="line"/>
      <point x="114" y="410" type="line" name="dv03"/>
    </contour>
    <contour>
      <point x="489" y="0" type="line" name="ab01"/>
      <point x="609" y="0" type="line"/>
      <point x="609" y="500" type="line"/>
      <point x="489" y="500" type="line" name="av01"/>
    </contour>
    <contour>
      <point x="485" y="637" type="curve" smooth="yes"/>
      <point x="485" y="609"/>
      <point x="507" y="574"/>
      <point x="551" y="574" type="curve" smooth="yes" name="dv01"/>
      <point x="593" y="574"/>
      <point x="614" y="605"/>
      <point x="614" y="637" type="curve" smooth="yes"/>
      <point x="614" y="669"/>
      <point x="593" y="698"/>
      <point x="551" y="698" type="curve" smooth="yes" name="dv02"/>
      <point x="507" y="698"/>
      <point x="485" y="665"/>
    </contour>
  </outline>
</glyph>
<glyph name="Decyr.ss08" format="2">
  <advance width="843"/>
  <anchor x="421" y="700" name="top"/>
  <anchor x="421" y="0" name="bottom"/>
  <outline>
    <contour>
      <point x="134" y="73" type="line"/>
      <point x="263" y="73" type="line"/>
      <point x="454" y="700" type="line"/>
      <point x="338" y="700" type="line"/>
    </contour>
    <contour>
      <point x="580" y="73" type="line"/>
      <point x="709" y="73" type="line"/>
      <point x="505" y="700" type="line"/>
      <point x="389" y="700" type="line"/>
    </contour>
    <contour>
      <point x="119" y="-140" type="line"/>
      <point x="119" y="-37"/>
      <point x="116" y="0"/>
      <point x="175" y="0" type="curve" smooth="yes"/>
      <point x="660" y="0" type="line" smooth="yes"/>
      <point x="731" y="0"/>
      <point x="723" y="-32"/>
      <point x="723" y="-140" type="curve"/>
      <point x="823" y="-140" type="line"/>
      <point x="823" y="83"/>
      <point x="789" y="100"/>
      <point x="693" y="100" type="curve" smooth="yes"/>
      <point x="156" y="100" type="line" smooth="yes"/>
      <point x="61" y="100"/>
      <point x="19" y="83"/>
      <point x="19" y="-140" type="curve"/>
    </contour>
  </outline>
</glyph>
<glyph name="Efcyr.loclBGR" format="2">
  <advance width="816"/>
  <outline>
    <contour>
      <point x="348" y="-80" type="line"/>
      <point x="468" y="-80" type="line"/>
      <point x="468" y="0" type="line"/>
      <point x="651" y="0"/>
      <point x="773" y="141.443"/>
      <point x="773" y="353.608" type="curve" smooth="yes"/>
      <point x="773" y="561.443"/>
      <point x="651" y="700"/>
      <point x="468" y="700" type="curve"/>
      <point x="468" y="780" type="line"/>
      <point x="348" y="780" type="line"/>
      <point x="348" y="700" type="line"/>
      <point x="165" y="700"/>
      <point x="43" y="561.443"/>
      <point x="43" y="353.608" type="curve" smooth="yes"/>
      <point x="43" y="141.443"/>
      <point x="165" y="0"/>
      <point x="348" y="0" type="curve"/>
    </contour>
    <contour>
      <point x="468" y="600" type="line"/>
      <point x="579" y="600"/>
      <point x="653" y="501.047"/>
      <point x="653" y="352.618" type="curve" smooth="yes"/>
      <point x="653" y="201.047"/>
      <point x="579" y="100"/>
      <point x="468" y="100" type="curve"/>
    </contour>
    <contour>
      <point x="348" y="100" type="line"/>
      <point x="237" y="100"/>
      <point x="163" y="202.618"/>
      <point x="163" y="356.544" type="curve" smooth="yes"/>
      <point x="163" y="502.618"/>
      <point x="237" y="600"/>
      <point x="348" y="600" type="curve"/>
    </contour>
  </outline>
</glyph>
<glyph name="Eng.ss12" format="2">
  <advance width="732"/>
  <anchor x="366" y="719" name="top"/>
  <anchor x="349" y="-219" name="bottom"/>
  <outline>
    <contour>
      <point x="77" y="0" type="line"/>
      <point x="197" y="0" type="line" name="ab01"/>
      <point x="197" y="515" type="line" name="iv01"/>
      <point x="545" y="0" type="line" name="ab02"/>
      <point x="655" y="66.545" type="line"/>
      <point x="655" y="700" type="line" name="at01"/>
      <point x="535" y="700" type="line"/>
      <point x="535" y="185" type="line" name="iv02"/>
      <point x="187" y="700" type="line" name="at02"/>
      <point x="77" y="700" type="line"/>
    </contour>
    <contour>
      <point x="249.5" y="-181" type="line"/>
      <point x="295.5" y="-207"/>
      <point x="346.5" y="-227"/>
      <point x="423.5" y="-227" type="curve" smooth="yes"/>
      <point x="575.5" y="-227"/>
      <point x="654.5" y="-150"/>
      <point x="654.5" y="25" type="curve" smooth="yes"/>
      <point x="654.5" y="493" type="line"/>
      <point x="534.5" y="493" type="line"/>
      <point x="534.5" y="25" type="line" smooth="yes"/>
      <point x="534.5" y="-91"/>
      <point x="490.5" y="-127"/>
      <point x="402.5" y="-127" type="curve" smooth="yes"/>
      <point x="369.5" y="-127"/>
      <point x="325.5" y="-122"/>
      <point x="259.5" y="-97" type="curve"/>
    </contour>
  </outline>
</glyph>
<glyph name="Ereversedcyr.ss12" format="2">
  <advance width="669"/>
  <anchor x="304" y="719" name="top"/>
  <outline>
    <contour>
      <point x="53.188" y="87.206" type="line"/>
      <point x="88.715" y="33.731"/>
      <point x="185.017" y="-21.067"/>
      <point x="300" y="-21.067" type="curve" smooth="yes"/>
      <point x="500" y="-21.067"/>
      <point x="616" y="126"/>
      <point x="616" y="349" type="curve" smooth="yes"/>
      <point x="616" y="572"/>
      <point x="500" y="720"/>
      <point x="300" y="720" type="curve" smooth="yes"/>
      <point x="185.017" y="720"/>
      <point x="88.715" y="665.201"/>
      <point x="53.188" y="611.727" type="curve"/>
      <point x="61.295" y="528.19" type="line"/>
      <point x="137.022" y="587.855"/>
      <point x="214.858" y="619.699"/>
      <point x="296.316" y="619.699" type="curve" smooth="yes"/>
      <point x="445.316" y="619.699"/>
      <point x="496" y="513.594"/>
      <point x="496" y="345.953" type="curve" smooth="yes"/>
      <point x="496" y="182.328"/>
      <point x="440" y="78.933"/>
      <point x="291" y="78.933" type="curve" smooth="yes"/>
      <point x="209.542" y="78.933"/>
      <point x="137.022" y="110.376"/>
      <point x="61.295" y="170.742" type="curve"/>
    </contour>
    <contour>
      <point x="178" y="310" type="line"/>
      <point x="523" y="310" type="line"/>
      <point x="523" y="410" type="line"/>
      <point x="178" y="410" type="line"/>
    </contour>
  </outline>
</glyph>
<glyph name="G.ss09" format="2">
  <advance width="780"/>
  <anchor x="380" y="-19" name="bottom"/>
  <anchor x="380" y="719" name="top"/>
  <outline>
    <contour>
      <point x="315" y="261" type="line" name="dv05"/>
      <point x="601" y="261" type="line" name="dv07"/>
      <point x="622" y="257" type="line"/>
      <point x="686" y="0" type="line" name="dv15"/>
      <point x="717" y="0" type="line" name="dv14"/>
      <point x="717" y="351" type="line" name="iv02"/>
      <point x="315" y="351" type="line" name="dv06"/>
    </contour>
    <contour>
      <point x="587" y="324" type="line" name="iv01"/>
      <point x="583" y="199.49"/>
      <point x="512" y="80"/>
      <point x="377" y="80" type="curve" smooth="yes" name="dv02"/>
      <point x="256" y="80"/>
      <point x="163" y="176.178"/>
      <point x="163" y="349.499" type="curve" smooth="yes" name="dv12"/>
      <point x="163" y="515.807"/>
      <point x="249" y="620"/>
      <point x="382" y="620" type="curve" smooth="yes" name="dv03"/>
      <point x="474" y="620"/>
      <point x="551" y="571"/>
      <point x="580" y="485" type="curve"/>
      <point x="700" y="485" type="line"/>
      <point x="652" y="640"/>
      <point x="535" y="720"/>
      <point x="382" y="720" type="curve" smooth="yes" name="dv04"/>
      <point x="171" y="720"/>
      <point x="43" y="569"/>
      <point x="43" y="351" type="curve" smooth="yes" name="dv11"/>
      <point x="43" y="128.4"/>
      <point x="173.4" y="-20"/>
      <point x="369" y="-20" type="curve" smooth="yes" name="dv01"/>
      <point x="514" y="-20"/>
      <point x="608" y="74"/>
      <point x="634" y="236" type="curve" name="dv10"/>
    </contour>
  </outline>
</glyph>
<glyph name="Germandbls.ss09" format="2">
  <advance width="703"/>
  <outline>
    <contour>
      <point x="66" y="0" type="line"/>
      <point x="186" y="0" type="line"/>
      <point x="186" y="452" type="line" smooth="yes"/>
      <point x="186" y="576"/>
      <point x="237.189" y="619"/>
      <point x="340.57" y="619" type="curve" smooth="yes"/>
      <point x="388.611" y="619"/>
      <point x="427.528" y="609.909"/>
      <point x="457.319" y="594.686" type="curve"/>
      <point x="464.498" y="624.633" type="line"/>
      <point x="399" y="553" type="line" smooth="yes"/>
      <point x="342.494" y="491.201"/>
      <point x="324.596" y="450.172"/>
      <point x="324.596" y="411.341" type="curve" smooth="yes"/>
      <point x="324.596" y="228"/>
      <point x="535" y="287.62"/>
      <point x="535" y="149.2" type="curve" smooth="yes"/>
      <point x="535" y="101.2"/>
      <point x="501" y="81"/>
      <point x="449" y="81" type="curve" smooth="yes"/>
      <point x="394" y="81"/>
      <point x="372" y="105"/>
      <point x="370" y="157" type="curve"/>
      <point x="250" y="157" type="line"/>
      <point x="268" y="38"/>
      <point x="329" y="-20"/>
      <point x="450" y="-20" type="curve" smooth="yes"/>
      <point x="580" y="-20"/>
      <point x="657" y="47"/>
      <point x="657" y="156" type="curve" smooth="yes"/>
      <point x="657" y="345.096"/>
      <point x="450" y="306.135"/>
      <point x="450" y="418.735" type="curve" smooth="yes"/>
      <point x="450" y="451"/>
      <point x="466.997" y="476.867"/>
      <point x="487" y="499" type="curve" smooth="yes"/>
      <point x="640.468" y="668.81" type="line"/>
      <point x="616.263" y="635.719" type="line"/>
      <point x="557.077" y="692.295"/>
      <point x="445.065" y="720"/>
      <point x="337.493" y="720" type="curve" smooth="yes"/>
      <point x="136.127" y="720"/>
      <point x="66" y="624"/>
      <point x="66" y="489" type="curve" smooth="yes"/>
    </contour>
  </outline>
</glyph>
<glyph name="Germandbls.ss10" format="2">
  <advance width="723"/>
  <outline>
    <contour>
      <point x="554" y="151" type="curve" smooth="yes"/>
      <point x="554" y="109"/>
      <point x="522" y="80"/>
      <point x="476" y="80" type="curve" smooth="yes"/>
      <point x="414" y="80"/>
      <point x="365" y="104"/>
      <point x="314" y="187" type="curve"/>
      <point x="268" y="58" type="line"/>
      <point x="303.71" y="5.741"/>
      <point x="375.654" y="-20"/>
      <point x="459.071" y="-20" type="curve" smooth="yes"/>
      <point x="621" y="-20"/>
      <point x="674" y="77"/>
      <point x="674" y="156.346" type="curve" smooth="yes"/>
      <point x="674" y="322.354"/>
      <point x="467" y="322"/>
      <point x="467" y="424" type="curve" smooth="yes"/>
      <point x="467" y="453"/>
      <point x="488.669" y="476.487"/>
      <point x="513" y="505" type="curve" smooth="yes"/>
      <point x="655.155" y="671.588" type="line"/>
      <point x="637.25" y="619" type="line"/>
      <point x="574.537" y="676.689"/>
      <point x="451.694" y="720"/>
      <point x="327.913" y="720" type="curve" smooth="yes"/>
      <point x="131.05" y="720"/>
      <point x="66" y="631"/>
      <point x="66" y="499" type="curve" smooth="yes"/>
      <point x="66" y="0" type="line"/>
      <point x="186" y="0" type="line"/>
      <point x="186" y="494" type="line" smooth="yes"/>
      <point x="186" y="577"/>
      <point x="238.174" y="619"/>
      <point x="341.457" y="619" type="curve" smooth="yes"/>
      <point x="400.023" y="619"/>
      <point x="439.806" y="605.14"/>
      <point x="481.889" y="588.734" type="curve"/>
      <point x="500.818" y="652.391" type="line"/>
      <point x="424" y="559" type="line" smooth="yes"/>
      <point x="379.97" y="505.471"/>
      <point x="346" y="463"/>
      <point x="346" y="413" type="curve" smooth="yes"/>
      <point x="346" y="257"/>
      <point x="554" y="259"/>
    </contour>
  </outline>
</glyph>
<glyph name="M.ss01" format="2">
  <advance width="850"/>
  <anchor x="425" y="719" name="top"/>
  <anchor x="425" y="-20" name="bottom"/>
  <outline>
    <contour>
      <point x="77" y="0" type="line" name="ab01"/>
      <point x="197" y="0" type="line"/>
      <point x="197" y="483" type="line" name="iv02"/>
      <point x="389" y="164" type="line"/>
      <point x="461" y="164" type="line"/>
      <point x="653" y="483" type="line" name="iv03"/>
      <point x="653" y="0" type="line" name="ab02"/>
      <point x="773" y="0" type="line"/>
      <point x="773" y="700" type="line" name="at02"/>
      <point x="663" y="700" type="line"/>
      <point x="425" y="304" type="line" name="iv01"/>
      <point x="187" y="700" type="line" name="at01"/>
      <point x="77" y="700" type="line"/>
    </contour>
  </outline>
</glyph>
<glyph name="S.ss09" format="2">
  <advance width="590"/>
  <anchor x="280" y="719" name="top"/>
  <anchor x="295" y="-20" name="bottom"/>
  <outline>
    <contour>
      <point x="38" y="197" type="line"/>
      <point x="62" y="66"/>
      <point x="145" y="-21"/>
      <point x="298" y="-21" type="curve" smooth="yes"/>
      <point x="450" y="-21"/>
      <point x="541" y="64.133"/>
      <point x="541" y="177.309" type="curve" smooth="yes"/>
      <point x="541" y="335.675"/>
      <point x="425.378" y="366.752"/>
      <point x="322.881" y="394.301" type="curve" smooth="yes"/>
      <point x="241.281" y="416.233"/>
      <point x="168" y="435.929"/>
      <point x="168" y="515.837" type="curve" smooth="yes"/>
      <point x="168" y="581.941"/>
      <point x="204" y="620"/>
      <point x="283" y="620" type="curve" smooth="yes"/>
      <point x="357" y="620"/>
      <point x="395" y="586"/>
      <point x="409" y="502" type="curve"/>
      <point x="530" y="502" type="line"/>
      <point x="506" y="633"/>
      <point x="426" y="720"/>
      <point x="279" y="720" type="curve" smooth="yes"/>
      <point x="134" y="720"/>
      <point x="48" y="634.867"/>
      <point x="48" y="521.691" type="curve" smooth="yes"/>
      <point x="48" y="363.325"/>
      <point x="163.312" y="332.248"/>
      <point x="265.534" y="304.699" type="curve" smooth="yes"/>
      <point x="346.915" y="282.767"/>
      <point x="421" y="263.071"/>
      <point x="421" y="183.163" type="curve" smooth="yes"/>
      <point x="421" y="117.059"/>
      <point x="380" y="79"/>
      <point x="294" y="79" type="curve" smooth="yes"/>
      <point x="214" y="79"/>
      <point x="173" y="113"/>
      <point x="158" y="197" type="curve"/>
    </contour>
  </outline>
</glyph>
<glyph name="Scedilla.ss12" format="2">
  <advance width="590"/>
  <anchor x="290" y="719" name="top"/>
  <anchor x="275" y="-218" name="bottom"/>
  <outline>
    <contour>
      <point x="58" y="89" type="line"/>
      <point x="93.527" y="35.526"/>
      <point x="186.16" y="-21"/>
      <point x="298" y="-21" type="curve" smooth="yes"/>
      <point x="454.846" y="-21"/>
      <point x="541" y="60.345"/>
      <point x="541" y="183.87" type="curve" smooth="yes"/>
      <point x="541" y="314.922"/>
      <point x="434.864" y="354.23"/>
      <point x="338.011" y="390.101" type="curve" smooth="yes"/>
      <point x="256.737" y="420.201"/>
      <point x="182" y="447.881"/>
      <point x="182" y="525.319" type="curve" smooth="yes"/>
      <point x="182" y="589.705"/>
      <point x="218.131" y="619.699"/>
      <point x="295.689" y="619.699" type="curve" smooth="yes"/>
      <point x="360.976" y="619.699"/>
      <point x="432.934" y="595.132"/>
      <point x="508.661" y="535.467" type="curve"/>
      <point x="516.768" y="619.004" type="line"/>
      <point x="481.241" y="672.478"/>
      <point x="394.03" y="719.699"/>
      <point x="295.698" y="719.699" type="curve" smooth="yes"/>
      <point x="150.041" y="719.699"/>
      <point x="62" y="642.839"/>
      <point x="62" y="515.681" type="curve" smooth="yes"/>
      <point x="62" y="390.293"/>
      <point x="167.446" y="349.628"/>
      <point x="264.042" y="312.376" type="curve" smooth="yes"/>
      <point x="345.682" y="280.892"/>
      <point x="421" y="251.846"/>
      <point x="421" y="176.152" type="curve" smooth="yes"/>
      <point x="421" y="117.059"/>
      <point x="375.008" y="79"/>
      <point x="298.008" y="79" type="curve" smooth="yes"/>
      <point x="232.722" y="79"/>
      <point x="141.639" y="112.975"/>
      <point x="65.912" y="172.639" type="curve"/>
    </contour>
    <contour>
      <point x="168" y="-205" type="line"/>
      <point x="194" y="-211"/>
      <point x="223" y="-218"/>
      <point x="264" y="-218" type="curve" smooth="yes"/>
      <point x="347" y="-218"/>
      <point x="394" y="-189"/>
      <point x="394" y="-136" type="curve" smooth="yes"/>
      <point x="394" y="-89"/>
      <point x="358" y="-64"/>
      <point x="298" y="-64" type="curve"/>
      <point x="340.784" y="13.546" type="line"/>
      <point x="267.784" y="13.546" type="line"/>
      <point x="215" y="-90" type="line"/>
      <point x="230" y="-88"/>
      <point x="241" y="-86"/>
      <point x="254" y="-86" type="curve" smooth="yes"/>
      <point x="289" y="-86"/>
      <point x="310" y="-101"/>
      <point x="310" y="-130" type="curve" smooth="yes"/>
      <point x="310" y="-158"/>
      <point x="290" y="-177"/>
      <point x="254" y="-177" type="curve" smooth="yes"/>
      <point x="236" y="-177"/>
      <point x="208" y="-172"/>
      <point x="187" y="-166" type="curve"/>
    </contour>
  </outline>
</glyph>
<glyph name="Zecyr.ss10" format="2">
  <advance width="598"/>
  <anchor x="299" y="-20" name="bottom"/>
  <anchor x="299" y="719" name="top"/>
  <outline>
    <contour>
      <point x="57" y="107" type="line"/>
      <point x="126.069" y="23"/>
      <point x="213.156" y="-20"/>
      <point x="320.262" y="-20" type="curve" smooth="yes"/>
      <point x="463.405" y="-20"/>
      <point x="557.5" y="57"/>
      <point x="557.5" y="190" type="curve" smooth="yes"/>
      <point x="557.5" y="294"/>
      <point x="496.339" y="355"/>
      <point x="366" y="371" type="curve"/>
      <point x="479" y="398"/>
      <point x="525" y="447"/>
      <point x="525" y="541" type="curve" smooth="yes"/>
      <point x="525" y="650"/>
      <point x="447" y="720"/>
      <point x="301" y="720" type="curve" smooth="yes"/>
      <point x="213" y="720"/>
      <point x="126" y="677"/>
      <point x="57" y="593" type="curve"/>
      <point x="96" y="465" type="line"/>
      <point x="171" y="579.74"/>
      <point x="233" y="620"/>
      <point x="297" y="620" type="curve" smooth="yes"/>
      <point x="363" y="620"/>
      <point x="405" y="590.86"/>
      <point x="405" y="535.594" type="curve" smooth="yes"/>
      <point x="405" y="461.237"/>
      <point x="354" y="412"/>
      <point x="276" y="412" type="curve"/>
      <point x="276" y="317" type="line"/>
      <point x="397.626" y="317"/>
      <point x="437.5" y="264.78"/>
      <point x="437.5" y="197.496" type="curve" smooth="yes"/>
      <point x="437.5" y="117.157"/>
      <point x="375.592" y="80"/>
      <point x="305.694" y="80" type="curve" smooth="yes"/>
      <point x="232.8" y="80"/>
      <point x="170.891" y="120.26"/>
      <point x="96" y="235" type="curve"/>
    </contour>
  </outline>
</glyph>
<glyph name="a.ss01" format="2">
  <advance width="606"/>
  <anchor x="294" y="520" name="top"/>
  <anchor x="294" y="-20" name="bottom"/>
  <anchor x="611" y="-2" name="ogonek"/>
  <outline>
    <contour>
      <point x="244" y="-20" type="curve" smooth="yes" name="dv01"/>
      <point x="368" y="-20"/>
      <point x="435" y="78"/>
      <point x="435" y="248" type="curve" smooth="yes"/>
      <point x="435" y="422"/>
      <point x="365" y="520"/>
      <point x="235" y="520" type="curve" smooth="yes" name="at01"/>
      <point x="98" y="520"/>
      <point x="21" y="411"/>
      <point x="21" y="259" type="curve" smooth="yes"/>
      <point x="21" y="99"/>
      <point x="107" y="-20"/>
    </contour>
    <contour>
      <point x="272" y="70" type="curve" smooth="yes" name="dv02"/>
      <point x="192" y="70"/>
      <point x="141" y="143.203"/>
      <point x="141" y="256.518" type="curve" smooth="yes"/>
      <point x="141" y="365.822"/>
      <point x="189" y="430"/>
      <point x="269" y="430" type="curve" smooth="yes" name="sv01"/>
      <point x="354" y="430"/>
      <point x="413" y="357.799"/>
      <point x="413" y="253.51" type="curve" smooth="yes"/>
      <point x="413" y="151.226"/>
      <point x="356" y="70"/>
    </contour>
    <contour>
      <point x="593" y="88" type="line"/>
      <point x="581.806" y="79.414"/>
      <point x="561.5" y="71"/>
      <point x="547.778" y="71" type="curve" smooth="yes" name="dv02"/>
      <point x="535.478" y="71"/>
      <point x="533" y="88.127"/>
      <point x="533" y="159.657" type="curve" smooth="yes"/>
      <point x="533" y="499.903" type="line" name="ab01"/>
      <point x="413" y="499.903" type="line"/>
      <point x="413" y="132" type="line" smooth="yes"/>
      <point x="413" y="30"/>
      <point x="444.855" y="-20"/>
      <point x="526.01" y="-20" type="curve" smooth="yes" name="dv01"/>
      <point x="548.763" y="-20"/>
      <point x="570" y="-17"/>
      <point x="616" y="2" type="curve"/>
    </contour>
  </outline>
</glyph>
<glyph name="ae.ss15" format="2">
  <advance width="861"/>
  <anchor x="429" y="500" name="top"/>
  <anchor x="429" y="0" name="bottom"/>
  <outline>
    <contour>
      <point x="355" y="167" type="line" smooth="yes"/>
      <point x="355" y="108.79"/>
      <point x="304.58" y="70"/>
      <point x="229" y="70" type="curve" smooth="yes"/>
      <point x="179" y="70"/>
      <point x="153" y="95.62"/>
      <point x="153" y="137.99" type="curve" smooth="yes"/>
      <point x="153" y="183.32"/>
      <point x="183" y="205"/>
      <point x="237" y="205" type="curve" smooth="yes"/>
      <point x="308" y="205"/>
      <point x="355" y="243"/>
      <point x="355" y="263" type="curve"/>
    </contour>
    <contour>
      <point x="475.39" y="308" type="line"/>
      <point x="475.39" y="386.238"/>
      <point x="524.79" y="430"/>
      <point x="592.24" y="430" type="curve" smooth="yes"/>
      <point x="659.69" y="430"/>
      <point x="703.39" y="388"/>
      <point x="703.39" y="308" type="curve"/>
    </contour>
    <contour>
      <point x="68" y="357" type="line"/>
      <point x="146" y="412"/>
      <point x="194" y="430"/>
      <point x="253" y="430" type="curve" smooth="yes"/>
      <point x="317" y="430"/>
      <point x="355" y="409.28"/>
      <point x="355" y="359.96" type="curve" smooth="yes"/>
      <point x="355" y="309.64"/>
      <point x="316" y="285"/>
      <point x="225" y="285" type="curve" smooth="yes"/>
      <point x="100" y="285"/>
      <point x="33" y="236.68"/>
      <point x="33" y="143.58" type="curve" smooth="yes"/>
      <point x="33" y="44.42"/>
      <point x="112.747" y="-20"/>
      <point x="224.833" y="-20" type="curve" smooth="yes"/>
      <point x="297.959" y="-20"/>
      <point x="373.539" y="10"/>
      <point x="419.4" y="85.62" type="curve"/>
      <point x="462.27" y="19.64"/>
      <point x="529.808" y="-20"/>
      <point x="615.198" y="-20" type="curve" smooth="yes"/>
      <point x="689.482" y="-20"/>
      <point x="742.058" y="10"/>
      <point x="795.54" y="80" type="curve"/>
      <point x="788.89" y="154" type="line"/>
      <point x="733.2" y="97"/>
      <point x="677.5" y="70"/>
      <point x="617.4" y="70" type="curve" smooth="yes"/>
      <point x="516.023" y="70"/>
      <point x="475" y="143.349"/>
      <point x="475" y="236" type="curve"/>
      <point x="823.09" y="236" type="line"/>
      <point x="844.864" y="415.653"/>
      <point x="737.478" y="520"/>
      <point x="595.188" y="520" type="curve" smooth="yes"/>
      <point x="528.454" y="520"/>
      <point x="466.41" y="497.68"/>
      <point x="426" y="458.98" type="curve"/>
      <point x="390.14" y="498.02"/>
      <point x="333.401" y="520"/>
      <point x="261.517" y="520" type="curve" smooth="yes"/>
      <point x="177.806" y="520"/>
      <point x="111.616" y="490"/>
      <point x="61" y="431" type="curve"/>
    </contour>
  </outline>
</glyph>
<glyph name="ccedilla.ss09" format="2">
  <advance width="573"/>
  <anchor x="291" y="520" name="top"/>
  <anchor x="291" y="-218" name="bottom"/>
  <outline>
    <contour>
      <point x="419" y="167" type="line"/>
      <point x="415.965" y="111"/>
      <point x="370.927" y="70"/>
      <point x="305.419" y="70" type="curve" smooth="yes"/>
      <point x="210.226" y="70"/>
      <point x="157" y="134.358"/>
      <point x="157" y="246.983" type="curve" smooth="yes"/>
      <point x="157" y="361.62"/>
      <point x="205.108" y="430"/>
      <point x="298.254" y="430" type="curve" smooth="yes"/>
      <point x="363.763" y="430"/>
      <point x="413.919" y="389.828"/>
      <point x="421" y="333" type="curve"/>
      <point x="536" y="333" type="line"/>
      <point x="516.884" y="457.667"/>
      <point x="427.792" y="520"/>
      <point x="298.203" y="520" type="curve" smooth="yes"/>
      <point x="134.192" y="520"/>
      <point x="37" y="417"/>
      <point x="37" y="255" type="curve" smooth="yes"/>
      <point x="37" y="85"/>
      <point x="138.235" y="-20"/>
      <point x="303.247" y="-20" type="curve" smooth="yes"/>
      <point x="434.852" y="-20"/>
      <point x="523.939" y="47"/>
      <point x="534" y="167" type="curve"/>
    </contour>
    <contour>
      <point x="184" y="-205" type="line"/>
      <point x="210" y="-211"/>
      <point x="239" y="-218"/>
      <point x="280" y="-218" type="curve" smooth="yes"/>
      <point x="363" y="-218"/>
      <point x="410" y="-189"/>
      <point x="410" y="-136" type="curve" smooth="yes"/>
      <point x="410" y="-89"/>
      <point x="374" y="-64"/>
      <point x="314" y="-64" type="curve"/>
      <point x="356.784" y="13.546" type="line"/>
      <point x="283.784" y="13.546" type="line"/>
      <point x="231" y="-90" type="line"/>
      <point x="246" y="-88"/>
      <point x="257" y="-86"/>
      <point x="270" y="-86" type="curve" smooth="yes"/>
      <point x="305" y="-86"/>
      <point x="326" y="-101"/>
      <point x="326" y="-130" type="curve" smooth="yes"/>
      <point x="326" y="-158"/>
      <point x="306" y="-177"/>
      <point x="270" y="-177" type="curve" smooth="yes"/>
      <point x="252" y="-177"/>
      <point x="224" y="-172"/>
      <point x="203" y="-166" type="curve"/>
    </contour>
  </outline>
</glyph>
<glyph name="cent.osf" format="2">
  <advance width="563"/>
  <outline>
    <contour>
      <point x="277" y="537" type="line"/>
      <point x="327" y="537" type="line"/>
      <point x="327" y="657" type="line"/>
      <point x="277" y="657" type="line"/>
    </contour>
    <contour>
      <point x="278" y="-131" type="line"/>
      <point x="326" y="-131" type="line"/>
      <point x="326" y="-10" type="line"/>
      <point x="278" y="-11" type="line"/>
    </contour>
    <contour>
      <point x="448" y="138" type="line"/>
      <point x="418" y="95.373"/>
      <point x="349.999" y="70.346"/>
      <point x="299" y="70" type="curve" smooth="yes" name="dv02"/>
      <point x="190.997" y="69.268"/>
      <point x="170" y="174.86"/>
      <point x="170" y="268.906" type="curve" smooth="yes"/>
      <point x="170" y="396.464"/>
      <point x="211" y="457"/>
      <point x="297" y="457" type="curve" smooth="yes" name="sv01"/>
      <point x="352" y="457"/>
      <point x="410" y="433.657"/>
      <point x="442" y="389" type="curve"/>
      <point x="510" y="457" type="line"/>
      <point x="468" y="510"/>
      <point x="392" y="547"/>
      <point x="294" y="547" type="curve" smooth="yes" name="at01"/>
      <point x="138" y="547"/>
      <point x="50" y="443.05"/>
      <point x="50" y="268.75" type="curve" smooth="yes"/>
      <point x="50" y="83.95"/>
      <point x="138" y="-20"/>
      <point x="293" y="-20" type="curve" smooth="yes" name="dv01"/>
      <point x="393" y="-20"/>
      <point x="474" y="17"/>
      <point x="516" y="70" type="curve"/>
    </contour>
  </outline>
</glyph>
<glyph name="d.ss02" format="2">
  <advance width="605"/>
  <anchor x="285" y="-20" name="bottom"/>
  <anchor x="281" y="750" name="top"/>
  <anchor x="580" y="750" name="topright"/>
  <outline>
    <contour>
      <point x="422.16" y="120" type="line" name="ab03"/>
      <point x="424.64" y="26.08"/>
      <point x="457.1" y="-20"/>
      <point x="535" y="-20" type="curve" smooth="yes" name="dv01"/>
      <point x="557.76" y="-20"/>
      <point x="579" y="-16"/>
      <point x="625" y="2" type="curve"/>
      <point x="602" y="88" type="line"/>
      <point x="590.79" y="79.41"/>
      <point x="570.5" y="71"/>
      <point x="556.77" y="71" type="curve" smooth="yes" name="dv02"/>
      <point x="544.47" y="71"/>
      <point x="542" y="88.12"/>
      <point x="542" y="159.65" type="curve" smooth="yes"/>
      <point x="542" y="750" type="line" name="ab01"/>
      <point x="422" y="750" type="line"/>
    </contour>
    <contour>
      <point x="262" y="-20" type="curve" smooth="yes" name="dv01"/>
      <point x="379" y="-20"/>
      <point x="444" y="78"/>
      <point x="444" y="255" type="curve" smooth="yes"/>
      <point x="444" y="422"/>
      <point x="376" y="520"/>
      <point x="256" y="520" type="curve" smooth="yes" name="at01"/>
      <point x="115" y="520"/>
      <point x="40" y="411"/>
      <point x="40" y="255" type="curve" smooth="yes"/>
      <point x="40" y="99"/>
      <point x="124" y="-20"/>
    </contour>
    <contour>
      <point x="287" y="70" type="curve" smooth="yes" name="dv02"/>
      <point x="209" y="70"/>
      <point x="160" y="142.201"/>
      <point x="160" y="255.515" type="curve" smooth="yes"/>
      <point x="160" y="366.825"/>
      <point x="205" y="430"/>
      <point x="286" y="430" type="curve" smooth="yes" name="sv01"/>
      <point x="365" y="430"/>
      <point x="422" y="357.799"/>
      <point x="422" y="256.518" type="curve" smooth="yes"/>
      <point x="422" y="151.226"/>
      <point x="367" y="70"/>
    </contour>
  </outline>
</glyph>
<glyph name="five.osf.ss12" format="2">
  <advance width="604"/>
  <outline>
    <contour>
      <point x="28" y="-45" type="line"/>
      <point x="101" y="-130"/>
      <point x="182" y="-170"/>
      <point x="295" y="-170" type="curve" smooth="yes"/>
      <point x="463" y="-170"/>
      <point x="564" y="-81"/>
      <point x="564" y="74" type="curve" smooth="yes"/>
      <point x="564" y="219"/>
      <point x="476" y="300"/>
      <point x="330" y="300" type="curve" smooth="yes"/>
      <point x="270" y="300"/>
      <point x="222" y="286"/>
      <point x="196" y="268" type="curve"/>
      <point x="235" y="450" type="line"/>
      <point x="527" y="450" type="line"/>
      <point x="548" y="550" type="line"/>
      <point x="134" y="550" type="line"/>
      <point x="47" y="140" type="line"/>
      <point x="153" y="186"/>
      <point x="217" y="204"/>
      <point x="285" y="204" type="curve" smooth="yes"/>
      <point x="395" y="204"/>
      <point x="444" y="158"/>
      <point x="444" y="72" type="curve" smooth="yes"/>
      <point x="444" y="-19"/>
      <point x="389" y="-69"/>
      <point x="285" y="-69" type="curve" smooth="yes"/>
      <point x="195" y="-69"/>
      <point x="113" y="-32"/>
      <point x="40" y="40" type="curve"/>
    </contour>
  </outline>
</glyph>
<glyph name="five.ss10" format="2">
  <advance width="607"/>
  <outline>
    <contour>
      <point x="38" y="107" type="line"/>
      <point x="99" y="24"/>
      <point x="180" y="-20"/>
      <point x="289" y="-20" type="curve" smooth="yes"/>
      <point x="458" y="-20"/>
      <point x="567" y="86"/>
      <point x="567" y="241" type="curve" smooth="yes"/>
      <point x="567" y="383"/>
      <point x="475" y="477"/>
      <point x="329" y="477" type="curve" smooth="yes"/>
      <point x="281" y="477"/>
      <point x="233" y="464"/>
      <point x="208" y="453" type="curve"/>
      <point x="237" y="600" type="line"/>
      <point x="527" y="600" type="line"/>
      <point x="546" y="700" type="line"/>
      <point x="134" y="700" type="line"/>
      <point x="58" y="308" type="line"/>
      <point x="141" y="360"/>
      <point x="221" y="384"/>
      <point x="295" y="384" type="curve" smooth="yes"/>
      <point x="393" y="384"/>
      <point x="447" y="341"/>
      <point x="447" y="242" type="curve" smooth="yes"/>
      <point x="447" y="139"/>
      <point x="389" y="81"/>
      <point x="281" y="81" type="curve" smooth="yes"/>
      <point x="189" y="81"/>
      <point x="139" y="123"/>
      <point x="77" y="235" type="curve"/>
    </contour>
  </outline>
</glyph>
<glyph name="iogonek.ss11" format="2">
  <advance width="370"/>
  <anchor x="185" y="-20" name="bottom"/>
  <anchor x="185" y="689" name="top"/>
  <outline>
    <contour>
      <point x="125" y="0" type="line" name="ab01"/>
      <point x="245" y="0" type="line"/>
      <point x="245" y="500" type="line"/>
      <point x="125" y="500" type="line" name="av01"/>
    </contour>
    <contour>
      <point x="25" y="410" type="line"/>
      <point x="345" y="410" type="line"/>
      <point x="345" y="500" type="line"/>
      <point x="25" y="500" type="line"/>
    </contour>
    <contour>
      <point x="25" y="0" type="line"/>
      <point x="345" y="0" type="line"/>
      <point x="345" y="90" type="line"/>
      <point x="25" y="90" type="line"/>
    </contour>
    <contour>
      <point x="121" y="637" type="curve" smooth="yes"/>
      <point x="121" y="609"/>
      <point x="143" y="574"/>
      <point x="187" y="574" type="curve" smooth="yes" name="dv01"/>
      <point x="229" y="574"/>
      <point x="250" y="605"/>
      <point x="250" y="637" type="curve" smooth="yes"/>
      <point x="250" y="669"/>
      <point x="229" y="698"/>
      <point x="187" y="698" type="curve" smooth="yes" name="dv02"/>
      <point x="143" y="698"/>
      <point x="121" y="665"/>
    </contour>
    <contour>
      <point x="346" y="-182" type="line"/>
      <point x="302" y="-168"/>
      <point x="280" y="-137"/>
      <point x="280" y="-103" type="curve" smooth="yes"/>
      <point x="280" y="-66"/>
      <point x="305" y="-24"/>
      <point x="345" y="0" type="curve"/>
      <point x="322" y="3" type="line"/>
      <point x="239" y="-13"/>
      <point x="187" y="-55"/>
      <point x="187" y="-109" type="curve" smooth="yes"/>
      <point x="187" y="-158"/>
      <point x="231" y="-195"/>
      <point x="299" y="-205" type="curve"/>
    </contour>
  </outline>
</glyph>
<glyph name="lira.osf" format="2">
  <advance width="666"/>
  <outline>
    <contour>
      <point x="42" y="375" type="line"/>
      <point x="500" y="375" type="line"/>
      <point x="500" y="435" type="line"/>
      <point x="42" y="435" type="line"/>
    </contour>
    <contour>
      <point x="42" y="238" type="line"/>
      <point x="500" y="238" type="line"/>
      <point x="500" y="298" type="line"/>
      <point x="42" y="298" type="line"/>
    </contour>
    <contour>
      <point x="38" y="0" type="line"/>
      <point x="643" y="0" type="line"/>
      <point x="643" y="100" type="line"/>
      <point x="166" y="100" type="line"/>
      <point x="248" y="122"/>
      <point x="264" y="181"/>
      <point x="264" y="244" type="curve" smooth="yes"/>
      <point x="264" y="456" type="line" smooth="yes"/>
      <point x="264" y="524"/>
      <point x="285" y="620"/>
      <point x="394" y="620" type="curve" smooth="yes"/>
      <point x="450" y="620"/>
      <point x="516" y="595"/>
      <point x="575" y="527" type="curve"/>
      <point x="647" y="599" type="line"/>
      <point x="583" y="681"/>
      <point x="498" y="720"/>
      <point x="396" y="720" type="curve" smooth="yes"/>
      <point x="241" y="720"/>
      <point x="144" y="630"/>
      <point x="144" y="482" type="curve" smooth="yes"/>
      <point x="144" y="224" type="line" smooth="yes"/>
      <point x="144" y="156"/>
      <point x="102" y="88"/>
      <point x="38" y="60" type="curve"/>
    </contour>
  </outline>
</glyph>
<glyph name="plus.numr" format="2">
  <advance width="401"/>
  <outline>
    <contour>
      <point x="178" y="317" type="line"/>
      <point x="212" y="317" type="line"/>
      <point x="212" y="469" type="line"/>
      <point x="367" y="469" type="line"/>
      <point x="367" y="503" type="line"/>
      <point x="212" y="503" type="line"/>
      <point x="212" y="652" type="line"/>
      <point x="178" y="652" type="line"/>
      <point x="178" y="503" type="line"/>
      <point x="30" y="503" type="line"/>
      <point x="30" y="469" type="line"/>
      <point x="178" y="469" type="line"/>
    </contour>
  </outline>
</glyph>
<glyph name="schwa.ss09" format="2">
  <advance width="566"/>
  <anchor x="283" y="-20" name="bottom"/>
  <anchor x="283" y="520" name="top"/>
  <outline>
    <contour>
      <point x="42" y="289" type="line"/>
      <point x="41" y="281"/>
      <point x="40" y="268"/>
      <point x="40" y="250" type="curve" smooth="yes"/>
      <point x="40" y="80"/>
      <point x="129" y="-20"/>
      <point x="280" y="-20" type="curve" smooth="yes"/>
      <point x="434" y="-20"/>
      <point x="526" y="87"/>
      <point x="526" y="248" type="curve" smooth="yes"/>
      <point x="526" y="398"/>
      <point x="441" y="520"/>
      <point x="279" y="520" type="curve" smooth="yes"/>
      <point x="162" y="520"/>
      <point x="64" y="448"/>
      <point x="44" y="351" type="curve"/>
      <point x="164" y="351" type="line"/>
      <point x="178.24" y="394.551"/>
      <point x="213.841" y="430"/>
      <point x="279.957" y="430" type="curve" smooth="yes"/>
      <point x="356.245" y="430"/>
      <point x="401" y="380.65"/>
      <point x="408" y="289" type="curve"/>
    </contour>
    <contour>
      <point x="406" y="209" type="line"/>
      <point x="399.923" y="124"/>
      <point x="356.666" y="70"/>
      <point x="279.421" y="70" type="curve" smooth="yes"/>
      <point x="204.235" y="70"/>
      <point x="164.068" y="119"/>
      <point x="160" y="209" type="curve"/>
    </contour>
  </outline>
</glyph>
<glyph name="three.ss09" format="2">
  <advance width="550"/>
  <outline>
    <contour>
      <point x="192" y="327" type="line"/>
      <point x="394" y="327"/>
      <point x="490" y="388.475"/>
      <point x="490" y="512.522" type="curve" smooth="yes"/>
      <point x="490" y="634.374"/>
      <point x="410" y="720"/>
      <point x="266" y="720" type="curve" smooth="yes"/>
      <point x="123" y="720"/>
      <point x="38.931" y="631"/>
      <point x="17" y="502" type="curve"/>
      <point x="137" y="502" type="line"/>
      <point x="149.692" y="585"/>
      <point x="192" y="620"/>
      <point x="260" y="620" type="curve" smooth="yes"/>
      <point x="329" y="620"/>
      <point x="369" y="581.34"/>
      <point x="369" y="521.202" type="curve" smooth="yes"/>
      <point x="369" y="455.695"/>
      <point x="321" y="402"/>
      <point x="192" y="402" type="curve"/>
    </contour>
    <contour>
      <point x="17" y="197" type="line"/>
      <point x="41" y="67"/>
      <point x="124" y="-20"/>
      <point x="272" y="-20" type="curve" smooth="yes"/>
      <point x="413" y="-20"/>
      <point x="510" y="65.362"/>
      <point x="510" y="188.07" type="curve" smooth="yes"/>
      <point x="510" y="313.979"/>
      <point x="408" y="378"/>
      <point x="192" y="378" type="curve"/>
      <point x="192" y="313" type="line"/>
      <point x="335" y="313"/>
      <point x="389" y="256.353"/>
      <point x="389" y="186.881" type="curve" smooth="yes"/>
      <point x="389" y="120.615"/>
      <point x="352" y="80"/>
      <point x="275" y="80" type="curve" smooth="yes"/>
      <point x="204" y="80"/>
      <point x="152" y="113"/>
      <point x="137" y="197" type="curve"/>
    </contour>
  </outline>
</glyph>
<glyph name="tsecyr.loclBGR" format="2">
  <advance width="660"/>
  <outline>
    <contour>
      <point x="397" y="215" type="line"/>
      <point x="385" y="283" type="line"/>
      <point x="385" y="145.293"/>
      <point x="343" y="70"/>
      <point x="269" y="70" type="curve" smooth="yes"/>
      <point x="212" y="70"/>
      <point x="184" y="114.792"/>
      <point x="184" y="198.403" type="curve" smooth="yes"/>
      <point x="184" y="500" type="line"/>
      <point x="64" y="500" type="line"/>
      <point x="64" y="196" type="line" smooth="yes"/>
      <point x="64" y="51"/>
      <point x="122" y="-20"/>
      <point x="229" y="-20" type="curve" smooth="yes"/>
      <point x="323" y="-20"/>
      <point x="371" y="35"/>
      <point x="397" y="134" type="curve"/>
    </contour>
    <contour>
      <point x="385" y="0" type="line" name="ab01"/>
      <point x="505" y="0" type="line"/>
      <point x="505" y="500" type="line"/>
      <point x="385" y="500" type="line" name="av01"/>
    </contour>
    <contour>
      <point x="479" y="0" type="line"/>
      <point x="546" y="0"/>
      <point x="532" y="-72"/>
      <point x="532" y="-140" type="curve"/>
      <point x="618" y="-140" type="line"/>
      <point x="618" y="52"/>
      <point x="597" y="88"/>
      <point x="497" y="88" type="curve"/>
    </contour>
  </outline>
</glyph>
<glyph name="tshecyr.ss11" format="2">
  <advance width="649"/>
  <outline>
    <contour>
      <point x="103" y="0" type="line"/>
      <point x="223" y="0" type="line"/>
      <point x="223" y="700" type="line"/>
      <point x="103" y="700" type="line"/>
    </contour>
    <contour>
      <point x="223" y="197" type="line" name="iv01"/>
      <point x="223" y="324"/>
      <point x="271" y="408"/>
      <point x="359" y="408" type="curve" smooth="yes" name="sv01"/>
      <point x="418" y="408"/>
      <point x="450" y="378"/>
      <point x="450" y="270" type="curve" smooth="yes"/>
      <point x="450" y="0" type="line" name="ab01"/>
      <point x="570" y="0" type="line"/>
      <point x="570" y="294" type="line" smooth="yes"/>
      <point x="570" y="438"/>
      <point x="503" y="500"/>
      <point x="399" y="500" type="curve" smooth="yes" name="at01"/>
      <point x="306" y="500"/>
      <point x="229" y="432"/>
      <point x="215" y="335" type="curve"/>
      <point x="216" y="260" type="line"/>
    </contour>
    <contour>
      <point x="4" y="580" type="line"/>
      <point x="404" y="580" type="line"/>
      <point x="404" y="616" type="line"/>
      <point x="4" y="616" type="line"/>
    </contour>
  </outline>
</glyph>
<glyph name="u.ss02" format="2">
  <advance width="593"/>
  <anchor x="290" y="-20" name="bottom"/>
  <anchor x="290" y="520" name="top"/>
  <anchor x="584" y="-2" name="ogonek"/>
  <outline>
    <contour>
      <point x="399" y="215" type="line"/>
      <point x="387" y="283" type="line"/>
      <point x="387" y="145.293"/>
      <point x="345" y="70"/>
      <point x="271" y="70" type="curve" smooth="yes"/>
      <point x="214" y="70"/>
      <point x="186" y="114.792"/>
      <point x="186" y="198.403" type="curve" smooth="yes"/>
      <point x="186" y="500" type="line"/>
      <point x="66" y="500" type="line"/>
      <point x="66" y="196" type="line" smooth="yes"/>
      <point x="66" y="51"/>
      <point x="124" y="-20"/>
      <point x="231" y="-20" type="curve" smooth="yes"/>
      <point x="325" y="-20"/>
      <point x="373" y="35"/>
      <point x="399" y="134" type="curve"/>
    </contour>
    <contour>
      <point x="567" y="88" type="line"/>
      <point x="555.806" y="79.414"/>
      <point x="535.5" y="71"/>
      <point x="521.778" y="71" type="curve" smooth="yes" name="dv02"/>
      <point x="509.478" y="71"/>
      <point x="507" y="88.127"/>
      <point x="507" y="159.657" type="curve" smooth="yes"/>
      <point x="507" y="499.903" type="line" name="ab01"/>
      <point x="387" y="499.903" type="line"/>
      <point x="387" y="132" type="line" smooth="yes"/>
      <point x="387" y="30"/>
      <point x="418.855" y="-20"/>
      <point x="500.01" y="-20" type="curve" smooth="yes" name="dv01"/>
      <point x="522.763" y="-20"/>
      <point x="544" y="-16"/>
      <point x="590" y="2" type="curve"/>
    </contour>
  </outline>
</glyph>
<glyph name="zhecyr.loclBGR.ss11" format="2">
  <advance width="916"/>
  <anchor x="458" y="-20" name="bottom"/>
  <anchor x="458" y="750" name="top"/>
  <outline>
    <contour>
      <point x="501" y="354" type="line"/>
      <point x="246" y="354" type="line" name="iv02"/>
      <point x="161" y="500" type="line"/>
      <point x="48" y="500" type="line" name="av02"/>
      <point x="174" y="283" type="line"/>
      <point x="36" y="0" type="line"/>
      <point x="170" y="0" type="line" name="ab02"/>
      <point x="266" y="264" type="line" name="iv01"/>
      <point x="497" y="264" type="line"/>
    </contour>
    <contour>
      <point x="398" y="0" type="line" name="av01"/>
      <point x="518" y="0" type="line"/>
      <point x="518" y="700" type="line" name="av02"/>
      <point x="398" y="700" type="line"/>
    </contour>
    <contour>
      <point x="419" y="264" type="line"/>
      <point x="650" y="264" type="line" name="iv01"/>
      <point x="746" y="0" type="line" name="ab02"/>
      <point x="880" y="0" type="line"/>
      <point x="742" y="283" type="line"/>
      <point x="868" y="500" type="line" name="av02"/>
      <point x="755" y="500" type="line"/>
      <point x="670" y="354" type="line" name="iv02"/>
      <point x="415" y="354" type="line"/>
    </contour>
  </outline>
</glyph>
